<svg width="22" height="22" viewBox="0 0 22 22" fill="none" xmlns="http://www.w3.org/2000/svg">
<path d="M4.5293 1.85657H17.21C17.9186 1.85657 18.5985 2.13865 19.0996 2.63977C19.6006 3.14087 19.8818 3.8208 19.8818 4.52942V6.34094C19.8817 7.12644 19.5436 7.83342 19.0029 8.32239L18.9883 8.33606V18.0841C18.9883 18.5526 18.8019 19.0019 18.4707 19.3331C18.1395 19.6644 17.6901 19.8507 17.2217 19.8507H10.3018V19.8497L10.293 19.8517C10.1845 19.8722 10.0743 19.8819 9.96387 19.882H8.15234C8.0418 19.8819 7.93088 19.8722 7.82227 19.8517L7.82324 19.8507H4.53906C4.07061 19.8507 3.62129 19.6644 3.29004 19.3331C2.95879 19.0019 2.77246 18.5526 2.77246 18.0841V8.26477L2.72461 8.31165C2.45638 8.0665 2.24096 7.7693 2.0918 7.43762C1.93673 7.0928 1.85595 6.71903 1.85645 6.34094V4.52942C1.85645 3.82073 2.13853 3.14089 2.63965 2.63977C3.14076 2.13865 3.82061 1.85657 4.5293 1.85657ZM13.5566 8.33215C13.0673 8.77113 12.4328 9.01372 11.7754 9.01282H9.96387C9.27982 9.01282 8.65467 8.75518 8.18262 8.33215L8.15234 8.30481L8.12207 8.33215C7.63276 8.77108 6.99815 9.01366 6.34082 9.01282H4.49316V18.13H6.38574V13.587C6.38574 13.1186 6.57207 12.6693 6.90332 12.338C7.23456 12.0068 7.68394 11.8204 8.15234 11.8204H9.96387C10.4323 11.8205 10.8817 12.0068 11.2129 12.338C11.5441 12.6692 11.7305 13.1186 11.7305 13.587V18.13H17.2676V9.01282H15.3984C14.7144 9.01281 14.0892 8.75522 13.6172 8.33215L13.5869 8.30481L13.5566 8.33215ZM8.10645 18.13H9.96387V18.0851H10.0088V13.5421H8.10645V18.13ZM14.4932 11.8204H15.3984C15.6265 11.8204 15.8455 11.9112 16.0068 12.0724C16.1681 12.2337 16.2587 12.4527 16.2588 12.6808V15.3986C16.2588 15.6268 16.1682 15.8456 16.0068 16.007C15.8455 16.1683 15.6267 16.2589 15.3984 16.2589H14.4932C14.2649 16.2589 14.0452 16.1683 13.8838 16.007C13.7226 15.8456 13.6318 15.6267 13.6318 15.3986V12.6808C13.6319 12.4527 13.7225 12.2337 13.8838 12.0724C14.0452 11.911 14.2649 11.8204 14.4932 11.8204ZM4.5293 3.57825C4.27705 3.57825 4.03481 3.6782 3.85645 3.85657C3.67808 4.03493 3.57812 4.27718 3.57812 4.52942V6.34094C3.57821 6.59301 3.67824 6.83454 3.85645 7.01282C4.03481 7.19118 4.27705 7.29211 4.5293 7.29211H6.34082C6.59295 7.29203 6.8344 7.19111 7.0127 7.01282C7.19099 6.83453 7.29191 6.59307 7.29199 6.34094V3.57825H4.5293ZM9.0127 6.34094C9.01278 6.59296 9.11288 6.83455 9.29102 7.01282C9.46938 7.19118 9.71162 7.29211 9.96387 7.29211H11.7754C12.0276 7.29209 12.2699 7.19116 12.4482 7.01282C12.6263 6.83456 12.7265 6.59289 12.7266 6.34094V3.57825H9.0127V6.34094ZM14.4473 6.34094C14.4473 6.59291 14.5475 6.83456 14.7256 7.01282C14.9039 7.19117 15.1462 7.2921 15.3984 7.29211H17.21C17.4622 7.29211 17.7044 7.19118 17.8828 7.01282C18.0609 6.83455 18.1611 6.59295 18.1611 6.34094V4.52942C18.1611 4.27724 18.0611 4.03492 17.8828 3.85657C17.7044 3.6782 17.4622 3.57825 17.21 3.57825H14.4473V6.34094Z" fill="#53B175" stroke="white" stroke-width="0.0905797"/>
</svg>
